<svg width="113" height="30" viewBox="0 0 113 30" fill="none" xmlns="http://www.w3.org/2000/svg">
<g clip-path="url(#clip0)">
<path d="M0.152778 8.11117C0.0555556 8.25006 0.0138889 8.40283 0 8.54172V8.80561V8.8195V21.1528C0 25.0973 2.76389 28.4584 6.625 29.7501C6.79167 29.764 7.04167 29.764 7.22222 29.6251C7.5 29.4028 7.5 28.9167 7.5 28.9167C7.5 28.9167 7.5 28.9306 7.51389 28.9445V6.02783L0.347222 7.9445C0.277778 7.98617 0.208333 8.04172 0.152778 8.11117Z" fill="#01116D"/>
<path d="M11.4029 5.13892C11.2918 5.2778 11.264 5.44447 11.2501 5.58336V5.83336C11.2501 5.84725 11.2501 5.86114 11.2501 5.86114V28.9445V28.9306C11.2501 28.9306 11.2362 29.4167 11.5279 29.6389C11.7084 29.7778 11.9723 29.7778 12.1251 29.7639C15.9862 28.4723 18.7362 25.1111 18.7362 21.1667V3.01392L11.7501 4.88892C11.6251 4.94447 11.5001 5.01392 11.4029 5.13892Z" fill="#01116D"/>
<path d="M23.2915 1.79167C23.3054 1.79167 23.3054 1.79167 23.2915 1.79167C23.3054 1.79167 23.2777 1.79167 23.2638 1.80556L23.0554 1.86111C22.9304 1.90278 22.7638 1.98611 22.6665 2.125C22.5693 2.26389 22.5277 2.41667 22.5138 2.55556V2.81944V2.83333V20.8333C22.5138 23.8889 21.4304 26.7917 19.4165 29.1806C19.2915 29.375 19.1665 29.625 19.2499 29.7917C19.3054 29.8889 19.4165 29.9444 19.5415 29.9722C19.6665 29.9722 19.7915 29.9861 19.9304 29.9861C25.486 29.9861 29.9999 25.875 29.9999 20.8194V0L23.2915 1.79167Z" fill="#00D6AC"/>
<path d="M40.6807 6.25H43.0696V14.3611C43.0696 16.5139 44.264 17.9028 46.5418 17.9028C48.7918 17.9028 49.9862 16.5 49.9862 14.3611V6.25H52.3751V14.4167C52.3751 17.7778 50.4445 20.0139 46.5418 20.0139C42.6112 20.0139 40.6807 17.7639 40.6807 14.4444V6.25Z" fill="#01116D"/>
<path d="M55.1946 23.5V9.98608H57.3196V11.3194C58.0557 10.3472 59.1807 9.73608 60.4585 9.73608C62.9862 9.73608 64.7918 11.6389 64.7918 14.8611C64.7918 18.0833 62.9862 20.0139 60.4585 20.0139C59.2223 20.0139 58.1112 19.4722 57.3196 18.4166V23.5H55.1946ZM59.8335 11.625C58.8335 11.625 57.7918 12.2083 57.3196 12.9444V16.8194C57.7918 17.5277 58.8335 18.1389 59.8335 18.1389C61.514 18.1389 62.5973 16.7777 62.5973 14.875C62.5973 12.9861 61.5279 11.625 59.8335 11.625Z" fill="#01116D"/>
<path d="M73.2223 12.5972L70.9445 19.7777H68.7084L65.6667 9.98608H67.8751L69.9445 17.0972L72.2779 9.98608H74.139L76.4723 17.0972L78.5417 9.98608H80.7501L77.7084 19.7777H75.4723L73.2223 12.5972Z" fill="#01116D"/>
<path d="M88.2222 18.7222C87.4861 19.5555 86.3611 20.0138 85.0556 20.0138C83.4584 20.0138 81.6528 18.9444 81.6528 16.7639C81.6528 14.5139 83.4584 13.5833 85.0556 13.5833C86.375 13.5833 87.5139 14.0139 88.2222 14.8472V13.3889C88.2222 12.25 87.2917 11.5694 85.9306 11.5694C84.8334 11.5694 83.8889 11.9722 83.0278 12.8055L82.1528 11.3194C83.2917 10.25 84.7084 9.73608 86.2639 9.73608C88.4306 9.73608 90.3333 10.6527 90.3333 13.2777V19.7638H88.2083V18.7222H88.2222ZM88.2222 16.0694C87.7361 15.4027 86.8195 15.0555 85.8889 15.0555C84.6945 15.0555 83.8056 15.75 83.8056 16.8194C83.8056 17.875 84.6945 18.5694 85.8889 18.5694C86.8195 18.5694 87.7361 18.2222 88.2222 17.5555V16.0694Z" fill="#01116D"/>
<path d="M91.6948 9.98608H93.9726L96.8337 17.3333L99.6948 9.98608H101.987L97.9865 19.7777H95.6948L91.6948 9.98608Z" fill="#01116D"/>
<path d="M107.68 9.73608C110.625 9.73608 112.5 11.9861 112.5 15.0694V15.5694H104.93C105.097 17.0555 106.208 18.2638 108.055 18.2638C109.014 18.2638 110.139 17.875 110.833 17.1944L111.805 18.5972C110.833 19.5277 109.389 20.0138 107.833 20.0138C104.889 20.0138 102.708 17.9722 102.708 14.8611C102.708 12.0277 104.778 9.73608 107.68 9.73608ZM104.917 14.0833H110.43C110.389 12.9305 109.597 11.4861 107.667 11.4861C105.847 11.4861 105.014 12.875 104.917 14.0833Z" fill="#01116D"/>
</g>
<defs>
<clipPath id="clip0">
<rect width="112.5" height="30" fill="white"/>
</clipPath>
</defs>
</svg>
