<?xml version="1.0" encoding="UTF-8"?>
<svg xmlns="http://www.w3.org/2000/svg" viewBox="0 0 154.419 25.904" overflow="visible" id="svg1405276051_11358"><g><path d="M 14.47 2.407 L 2.422 14.378 L 0 11.97 L 12.048 0 Z M 19.311 7.217 L 7.265 19.187 L 4.842 16.781 L 16.891 4.813 Z M 24.156 12.032 L 12.108 24 L 9.688 21.593 L 21.736 9.623 L 24.156 12.031 Z" fill="#0f1c31"/><path d="M 40.393 10.496 L 37.06 10.496 L 37.06 16.112 C 37.06 16.48 37.068 16.824 37.084 17.144 C 37.1 17.448 37.165 17.72 37.277 17.96 C 37.39 18.184 37.559 18.368 37.785 18.512 C 38.01 18.64 38.332 18.704 38.751 18.704 C 39.025 18.704 39.306 18.672 39.596 18.608 C 39.886 18.544 40.16 18.448 40.418 18.32 L 40.49 20.024 C 40.168 20.168 39.806 20.272 39.403 20.336 C 39.036 20.398 38.664 20.43 38.292 20.432 C 37.615 20.432 37.076 20.344 36.673 20.168 C 36.296 20.012 35.97 19.754 35.731 19.424 C 35.506 19.104 35.353 18.712 35.272 18.248 C 35.205 17.723 35.173 17.194 35.176 16.664 L 35.176 10.496 L 32.712 10.496 L 32.712 8.912 L 35.176 8.912 L 35.176 5.72 L 37.06 5.72 L 37.06 8.912 L 40.393 8.912 Z M 42.776 2 L 44.66 2 L 44.66 10.472 L 44.708 10.472 C 44.837 10.248 45.014 10.032 45.24 9.824 C 45.465 9.6 45.731 9.4 46.037 9.224 C 46.359 9.048 46.713 8.904 47.1 8.792 C 47.5 8.678 47.915 8.621 48.332 8.624 C 49.073 8.624 49.709 8.736 50.24 8.96 C 50.788 9.184 51.239 9.496 51.593 9.896 C 51.947 10.296 52.205 10.784 52.366 11.36 C 52.549 11.959 52.638 12.582 52.632 13.208 L 52.632 20.144 L 50.747 20.144 L 50.747 13.4 C 50.747 12.456 50.538 11.712 50.119 11.168 C 49.701 10.624 49.048 10.352 48.163 10.352 C 47.551 10.352 47.019 10.456 46.568 10.664 C 46.139 10.868 45.766 11.173 45.481 11.552 C 45.208 11.936 44.998 12.392 44.853 12.92 C 44.719 13.494 44.654 14.082 44.66 14.672 L 44.66 20.144 L 42.776 20.144 Z M 56.418 8.912 L 58.302 8.912 L 58.302 20.144 L 56.417 20.144 L 56.417 8.912 Z M 55.983 4.52 C 55.98 4.156 56.124 3.806 56.383 3.549 C 56.642 3.291 56.994 3.148 57.36 3.152 C 57.747 3.152 58.069 3.288 58.327 3.56 C 58.6 3.832 58.737 4.152 58.737 4.52 C 58.737 4.92 58.608 5.248 58.351 5.504 C 58.093 5.76 57.763 5.888 57.36 5.888 C 56.958 5.888 56.628 5.76 56.37 5.504 C 56.112 5.248 55.983 4.92 55.983 4.52 Z M 62.103 11.576 C 62.103 11.064 62.086 10.584 62.054 10.136 C 62.023 9.729 62.008 9.32 62.006 8.912 L 63.793 8.912 C 63.793 9.216 63.801 9.52 63.817 9.824 C 63.834 10.128 63.842 10.44 63.842 10.76 L 63.89 10.76 C 64.019 10.488 64.197 10.224 64.422 9.968 C 64.664 9.712 64.945 9.488 65.267 9.296 C 65.59 9.088 65.952 8.928 66.354 8.816 C 66.777 8.685 67.217 8.62 67.659 8.624 C 67.787 8.624 67.916 8.632 68.044 8.648 C 68.174 8.664 68.303 8.696 68.432 8.744 L 68.311 10.64 C 67.982 10.543 67.64 10.494 67.297 10.496 C 66.136 10.496 65.291 10.872 64.76 11.624 C 64.244 12.36 63.986 13.376 63.986 14.672 L 63.986 20.144 L 62.104 20.144 L 62.104 11.576 Z M 79.617 18.152 L 79.569 18.152 C 79.215 18.792 78.651 19.336 77.878 19.784 C 77.121 20.216 76.235 20.432 75.221 20.432 C 74.458 20.437 73.703 20.29 72.998 20 C 72.319 19.705 71.703 19.281 71.187 18.752 C 70.677 18.208 70.276 17.572 70.003 16.88 C 69.708 16.131 69.56 15.332 69.568 14.528 C 69.568 13.68 69.713 12.896 70.003 12.176 C 70.278 11.479 70.688 10.843 71.211 10.304 C 71.736 9.769 72.37 9.352 73.071 9.08 C 73.812 8.776 74.625 8.624 75.511 8.624 C 76.332 8.624 77.081 8.792 77.757 9.128 C 78.455 9.468 79.072 9.95 79.569 10.544 L 79.617 10.544 L 79.617 2 L 81.502 2 L 81.502 20.144 L 79.617 20.144 Z M 79.617 14.528 C 79.617 13.936 79.521 13.392 79.327 12.896 C 79.162 12.403 78.89 11.953 78.53 11.576 C 78.174 11.191 77.737 10.887 77.25 10.688 C 76.767 10.464 76.219 10.352 75.607 10.352 C 74.995 10.352 74.44 10.464 73.941 10.688 C 73.457 10.896 73.039 11.192 72.684 11.576 C 72.323 11.956 72.043 12.405 71.863 12.896 C 71.681 13.421 71.591 13.973 71.597 14.528 C 71.597 15.12 71.686 15.672 71.863 16.184 C 72.056 16.68 72.33 17.12 72.684 17.504 C 73.039 17.872 73.457 18.168 73.941 18.392 C 74.47 18.606 75.036 18.712 75.607 18.704 C 76.219 18.704 76.767 18.6 77.25 18.392 C 77.749 18.168 78.176 17.872 78.53 17.504 C 78.885 17.12 79.15 16.68 79.327 16.184 C 79.524 15.654 79.622 15.093 79.617 14.528 Z M 84.965 2 L 86.849 2 L 86.849 10.544 L 86.897 10.544 C 87.389 9.955 87.997 9.473 88.685 9.128 C 89.393 8.789 90.17 8.616 90.956 8.624 C 91.841 8.624 92.647 8.776 93.371 9.08 C 94.112 9.368 94.74 9.776 95.256 10.304 C 95.778 10.843 96.188 11.479 96.463 12.176 C 96.753 12.896 96.898 13.68 96.898 14.528 C 96.898 15.376 96.753 16.16 96.463 16.88 C 96.188 17.577 95.778 18.213 95.256 18.752 C 94.751 19.284 94.143 19.708 93.468 20 C 92.764 20.29 92.008 20.437 91.246 20.432 C 90.231 20.432 89.337 20.216 88.564 19.784 C 87.807 19.336 87.252 18.792 86.897 18.152 L 86.849 18.152 L 86.849 20.144 L 84.965 20.144 Z M 86.849 14.528 C 86.849 15.12 86.938 15.672 87.115 16.184 C 87.308 16.68 87.582 17.12 87.936 17.504 C 88.29 17.872 88.709 18.168 89.192 18.392 C 89.721 18.606 90.288 18.712 90.859 18.704 C 91.471 18.704 92.019 18.6 92.502 18.392 C 93.001 18.168 93.428 17.872 93.782 17.504 C 94.136 17.12 94.402 16.68 94.579 16.184 C 94.776 15.654 94.874 15.093 94.869 14.528 C 94.869 13.936 94.772 13.392 94.579 12.896 C 94.414 12.403 94.142 11.953 93.782 11.576 C 93.426 11.191 92.989 10.887 92.502 10.688 C 92.019 10.464 91.471 10.352 90.859 10.352 C 90.247 10.352 89.692 10.464 89.192 10.688 C 88.709 10.896 88.29 11.192 87.936 11.576 C 87.575 11.956 87.295 12.405 87.115 12.896 C 86.933 13.421 86.843 13.973 86.849 14.528 Z M 99.879 11.576 C 99.879 11.064 99.863 10.584 99.831 10.136 C 99.801 9.729 99.784 9.32 99.783 8.912 L 101.57 8.912 C 101.57 9.216 101.578 9.52 101.595 9.824 C 101.611 10.128 101.619 10.44 101.619 10.76 L 101.667 10.76 C 101.796 10.488 101.973 10.224 102.198 9.968 C 102.44 9.712 102.722 9.488 103.044 9.296 C 103.366 9.088 103.728 8.928 104.131 8.816 C 104.553 8.685 104.993 8.62 105.435 8.624 C 105.564 8.624 105.693 8.632 105.822 8.648 C 105.951 8.664 106.08 8.696 106.208 8.744 L 106.088 10.64 C 105.758 10.543 105.417 10.494 105.073 10.496 C 103.914 10.496 103.068 10.872 102.537 11.624 C 102.021 12.36 101.764 13.376 101.764 14.672 L 101.764 20.144 L 99.879 20.144 Z M 108.592 8.912 L 110.476 8.912 L 110.476 20.144 L 108.592 20.144 Z M 108.157 4.52 C 108.154 4.156 108.297 3.806 108.556 3.549 C 108.815 3.291 109.168 3.148 109.534 3.152 C 109.92 3.152 110.243 3.288 110.5 3.56 C 110.774 3.832 110.911 4.152 110.911 4.52 C 110.911 4.92 110.782 5.248 110.524 5.504 C 110.267 5.76 109.937 5.888 109.534 5.888 C 109.131 5.888 108.801 5.76 108.544 5.504 C 108.286 5.248 108.157 4.92 108.157 4.52 Z M 123.672 18.152 L 123.624 18.152 C 123.27 18.792 122.706 19.336 121.933 19.784 C 121.176 20.216 120.291 20.432 119.276 20.432 C 118.514 20.437 117.758 20.29 117.054 20 C 116.374 19.705 115.759 19.281 115.242 18.752 C 114.732 18.208 114.331 17.572 114.058 16.88 C 113.763 16.131 113.615 15.332 113.623 14.528 C 113.623 13.68 113.768 12.896 114.058 12.176 C 114.333 11.479 114.744 10.843 115.266 10.304 C 115.791 9.769 116.426 9.352 117.126 9.08 C 117.867 8.776 118.68 8.624 119.566 8.624 C 120.387 8.624 121.136 8.792 121.812 9.128 C 122.51 9.468 123.127 9.95 123.624 10.544 L 123.672 10.544 L 123.672 2 L 125.557 2 L 125.557 20.144 L 123.672 20.144 Z M 123.672 14.528 C 123.672 13.936 123.576 13.392 123.383 12.896 C 123.217 12.403 122.945 11.953 122.585 11.576 C 122.229 11.191 121.792 10.887 121.305 10.688 C 120.822 10.464 120.274 10.352 119.663 10.352 C 119.051 10.352 118.495 10.464 117.996 10.688 C 117.513 10.896 117.094 11.192 116.74 11.576 C 116.378 11.956 116.098 12.405 115.918 12.896 C 115.736 13.421 115.646 13.973 115.653 14.528 C 115.653 15.12 115.741 15.672 115.918 16.184 C 116.112 16.68 116.385 17.12 116.74 17.504 C 117.094 17.872 117.513 18.168 117.996 18.392 C 118.525 18.606 119.092 18.712 119.663 18.704 C 120.274 18.704 120.822 18.6 121.305 18.392 C 121.804 18.168 122.231 17.872 122.585 17.504 C 122.94 17.12 123.205 16.68 123.383 16.184 C 123.579 15.654 123.677 15.093 123.672 14.528 Z M 140.375 19.64 C 140.375 21.688 139.843 23.24 138.78 24.296 C 137.733 25.368 136.212 25.904 134.215 25.904 C 133.104 25.904 132.097 25.744 131.195 25.424 C 130.309 25.104 129.464 24.552 128.659 23.768 L 130.011 22.232 C 130.607 22.872 131.235 23.352 131.896 23.672 C 132.572 24.008 133.345 24.176 134.215 24.176 C 135.052 24.176 135.745 24.048 136.292 23.792 C 136.856 23.552 137.299 23.216 137.621 22.784 C 137.943 22.368 138.168 21.888 138.297 21.344 C 138.428 20.785 138.492 20.214 138.49 19.64 L 138.49 18.2 L 138.442 18.2 C 137.991 18.92 137.403 19.448 136.679 19.784 C 135.984 20.113 135.225 20.285 134.456 20.288 C 133.571 20.288 132.757 20.144 132.016 19.856 C 131.306 19.587 130.657 19.179 130.108 18.656 C 129.574 18.14 129.154 17.519 128.876 16.832 C 128.581 16.1 128.433 15.317 128.441 14.528 C 128.441 13.616 128.586 12.792 128.876 12.056 C 129.166 11.32 129.569 10.704 130.084 10.208 C 130.63 9.687 131.28 9.286 131.992 9.032 C 132.733 8.76 133.554 8.624 134.456 8.624 C 134.843 8.624 135.229 8.672 135.616 8.768 C 136.002 8.848 136.373 8.984 136.727 9.176 C 137.097 9.352 137.427 9.584 137.717 9.872 C 138.007 10.144 138.249 10.464 138.442 10.832 L 138.49 10.832 L 138.49 8.912 L 140.375 8.912 Z M 130.47 14.528 C 130.47 15.104 130.575 15.64 130.785 16.136 C 130.994 16.616 131.276 17.04 131.63 17.408 C 132 17.76 132.427 18.04 132.91 18.248 C 133.393 18.456 133.909 18.56 134.456 18.56 C 135.1 18.56 135.672 18.448 136.171 18.224 C 136.647 18.017 137.075 17.714 137.427 17.336 C 137.782 16.952 138.048 16.52 138.225 16.04 C 138.403 15.539 138.493 15.011 138.49 14.48 C 138.49 13.872 138.394 13.32 138.201 12.824 C 138.02 12.333 137.741 11.884 137.379 11.504 C 137.02 11.133 136.583 10.846 136.099 10.664 C 135.578 10.452 135.019 10.346 134.456 10.352 C 133.86 10.352 133.313 10.464 132.814 10.688 C 132.331 10.896 131.912 11.192 131.558 11.576 C 131.219 11.944 130.954 12.384 130.76 12.896 C 130.562 13.417 130.464 13.971 130.47 14.528 Z M 154.009 18.104 C 153.332 18.968 152.592 19.576 151.786 19.928 C 150.981 20.264 150.047 20.432 148.984 20.432 C 148.099 20.432 147.301 20.28 146.593 19.976 C 145.911 19.675 145.295 19.242 144.781 18.704 C 144.287 18.157 143.901 17.522 143.646 16.832 C 143.385 16.092 143.254 15.312 143.259 14.528 C 143.259 13.664 143.404 12.872 143.694 12.152 C 143.961 11.451 144.372 10.814 144.902 10.28 C 145.421 9.749 146.047 9.332 146.738 9.056 C 147.475 8.763 148.263 8.616 149.057 8.624 C 149.846 8.624 150.571 8.76 151.231 9.032 C 151.891 9.288 152.455 9.672 152.922 10.184 C 153.405 10.68 153.775 11.296 154.033 12.032 C 154.291 12.752 154.419 13.576 154.419 14.504 L 154.419 15.104 L 145.288 15.104 C 145.321 15.584 145.433 16.048 145.627 16.496 C 145.836 16.928 146.102 17.312 146.424 17.648 C 146.746 17.968 147.124 18.224 147.559 18.416 C 147.994 18.608 148.469 18.704 148.984 18.704 C 149.806 18.704 150.498 18.56 151.062 18.272 C 151.625 17.984 152.133 17.56 152.584 17 Z M 152.39 13.52 C 152.358 12.56 152.044 11.792 151.448 11.216 C 150.852 10.64 150.031 10.352 148.984 10.352 C 147.938 10.352 147.092 10.64 146.448 11.216 C 145.804 11.792 145.417 12.56 145.288 13.52 Z" fill="#0f1c31"/></g></svg>